<svg viewBox="0 0 173 173" fill="none" xmlns="http://www.w3.org/2000/svg">
<circle cx="86.5" cy="86.5" r="86.5" fill="white"/>
<path d="M77.4148 74.512C79.7828 74.512 81.5268 74.984 82.6468 75.928C83.7828 76.872 84.3508 78.136 84.3508 79.72C84.3508 80.744 84.0948 81.68 83.5828 82.528C83.0708 83.36 82.2868 84.032 81.2308 84.544C80.1908 85.04 78.9028 85.288 77.3668 85.288C76.1828 85.288 75.0148 85.136 73.8628 84.832C72.7268 84.512 71.7588 84.064 70.9588 83.488L72.4948 80.512C73.1348 80.992 73.8708 81.368 74.7028 81.64C75.5348 81.896 76.3908 82.024 77.2708 82.024C78.2468 82.024 79.0148 81.832 79.5748 81.448C80.1348 81.064 80.4148 80.528 80.4148 79.84C80.4148 79.12 80.1188 78.576 79.5268 78.208C78.9508 77.84 77.9428 77.656 76.5028 77.656H72.2068L73.0708 68.2H83.3188V71.32H76.3108L76.0468 74.512H77.4148ZM93.1282 85.288C91.7362 85.288 90.4962 84.944 89.4082 84.256C88.3202 83.568 87.4642 82.576 86.8402 81.28C86.2322 79.968 85.9282 78.408 85.9282 76.6C85.9282 74.792 86.2322 73.24 86.8402 71.944C87.4642 70.632 88.3202 69.632 89.4082 68.944C90.4962 68.256 91.7362 67.912 93.1282 67.912C94.5202 67.912 95.7602 68.256 96.8482 68.944C97.9362 69.632 98.7842 70.632 99.3922 71.944C100.016 73.24 100.328 74.792 100.328 76.6C100.328 78.408 100.016 79.968 99.3922 81.28C98.7842 82.576 97.9362 83.568 96.8482 84.256C95.7602 84.944 94.5202 85.288 93.1282 85.288ZM93.1282 82C94.1522 82 94.9522 81.56 95.5282 80.68C96.1202 79.8 96.4162 78.44 96.4162 76.6C96.4162 74.76 96.1202 73.4 95.5282 72.52C94.9522 71.64 94.1522 71.2 93.1282 71.2C92.1202 71.2 91.3202 71.64 90.7282 72.52C90.1522 73.4 89.8642 74.76 89.8642 76.6C89.8642 78.44 90.1522 79.8 90.7282 80.68C91.3202 81.56 92.1202 82 93.1282 82ZM62.2354 102.536V107H59.3194V102.5L54.4414 94.4H57.5374L60.9034 99.998L64.2694 94.4H67.1314L62.2354 102.536ZM77.9844 104.66V107H68.2284V94.4H77.7504V96.74H71.1264V99.476H76.9764V101.744H71.1264V104.66H77.9844ZM88.6025 104.3H82.7525L81.6365 107H78.6485L84.2645 94.4H87.1445L92.7785 107H89.7185L88.6025 104.3ZM87.6845 102.086L85.6865 97.262L83.6885 102.086H87.6845ZM102.114 107L99.6838 103.49H99.5398H97.0018V107H94.0858V94.4H99.5398C100.656 94.4 101.622 94.586 102.438 94.958C103.266 95.33 103.902 95.858 104.346 96.542C104.79 97.226 105.012 98.036 105.012 98.972C105.012 99.908 104.784 100.718 104.328 101.402C103.884 102.074 103.248 102.59 102.42 102.95L105.246 107H102.114ZM102.06 98.972C102.06 98.264 101.832 97.724 101.376 97.352C100.92 96.968 100.254 96.776 99.3778 96.776H97.0018V101.168H99.3778C100.254 101.168 100.92 100.976 101.376 100.592C101.832 100.208 102.06 99.668 102.06 98.972ZM111.462 107.216C110.466 107.216 109.5 107.084 108.564 106.82C107.64 106.544 106.896 106.19 106.332 105.758L107.322 103.562C107.862 103.958 108.504 104.276 109.248 104.516C109.992 104.756 110.736 104.876 111.48 104.876C112.308 104.876 112.92 104.756 113.316 104.516C113.712 104.264 113.91 103.934 113.91 103.526C113.91 103.226 113.79 102.98 113.55 102.788C113.322 102.584 113.022 102.422 112.65 102.302C112.29 102.182 111.798 102.05 111.174 101.906C110.214 101.678 109.428 101.45 108.816 101.222C108.204 100.994 107.676 100.628 107.232 100.124C106.8 99.62 106.584 98.948 106.584 98.108C106.584 97.376 106.782 96.716 107.178 96.128C107.574 95.528 108.168 95.054 108.96 94.706C109.764 94.358 110.742 94.184 111.894 94.184C112.698 94.184 113.484 94.28 114.252 94.472C115.02 94.664 115.692 94.94 116.268 95.3L115.368 97.514C114.204 96.854 113.04 96.524 111.876 96.524C111.06 96.524 110.454 96.656 110.058 96.92C109.674 97.184 109.482 97.532 109.482 97.964C109.482 98.396 109.704 98.72 110.148 98.936C110.604 99.14 111.294 99.344 112.218 99.548C113.178 99.776 113.964 100.004 114.576 100.232C115.188 100.46 115.71 100.82 116.142 101.312C116.586 101.804 116.808 102.47 116.808 103.31C116.808 104.03 116.604 104.69 116.196 105.29C115.8 105.878 115.2 106.346 114.396 106.694C113.592 107.042 112.614 107.216 111.462 107.216Z" fill="black"/>
<path d="M82.8987 25.203L81.6101 25.3966C81.466 25.4182 81.3442 25.3997 81.2447 25.341C81.1452 25.2822 81.065 25.2008 81.004 25.0966L76.3743 17.1974C76.2684 17.0206 76.1684 16.826 76.0741 16.6134C75.9743 16.4017 75.876 16.1813 75.7792 15.9521C75.7651 16.1979 75.747 16.4359 75.7249 16.6659C75.6973 16.8967 75.6588 17.1122 75.6095 17.3123L73.5218 26.2206C73.4972 26.3206 73.4436 26.4165 73.361 26.5083C73.2793 26.6056 73.1691 26.6646 73.0306 26.6855L71.7336 26.8803L74.7991 14.2376L76.2539 14.0191L82.8987 25.203Z" fill="black"/>
<path d="M54.7755 20.2245L55.9514 19.7689C56.0873 19.7163 56.2102 19.7077 56.3201 19.7432C56.43 19.7788 56.5262 19.8407 56.6085 19.929L58.7098 22.2343L63.7503 20.2812L63.7497 17.162C63.7499 17.0537 63.7802 16.9458 63.8407 16.8382C63.9012 16.7306 63.9967 16.6515 64.1274 16.6009L65.3032 16.1453L65.1641 29.1189L63.6198 29.7173L54.7755 20.2245ZM63.7522 21.5427L59.5584 23.1677L63.0929 27.0544C63.3172 27.2921 63.5663 27.6013 63.8401 27.982C63.8145 27.7455 63.7951 27.5246 63.7817 27.3195C63.7651 27.1215 63.7566 26.9445 63.7562 26.7884L63.7522 21.5427Z" fill="black"/>
<path d="M48.8301 25.2175L44.4424 28.0309L43.7027 26.8773L49.4634 23.1836L55.966 33.3249L54.593 34.2052L48.8301 25.2175Z" fill="black"/>
<path d="M36.2251 34.9552C35.869 35.3045 35.6098 35.6765 35.4474 36.0712C35.285 36.466 35.2138 36.8655 35.2336 37.27C35.2495 37.6784 35.3545 38.0816 35.5488 38.4798C35.7391 38.882 36.0109 39.2631 36.364 39.6232L41.4911 44.851L40.3328 45.9871L35.2057 40.7593C34.719 40.2631 34.3478 39.7245 34.0918 39.1434C33.8319 38.5662 33.697 37.9764 33.687 37.3739C33.6769 36.7793 33.7976 36.186 34.0491 35.5939C34.3005 35.0019 34.6904 34.4469 35.2185 33.9289C35.7467 33.4109 36.3092 33.0319 36.906 32.792C37.5028 32.5521 38.1004 32.441 38.6987 32.4587C39.3009 32.4804 39.89 32.6248 40.466 32.892C41.038 33.1631 41.5673 33.5467 42.054 34.0429L47.1811 39.2706L46.0227 40.4067L40.9015 35.185C40.5483 34.8248 40.1745 34.5438 39.7801 34.3418C39.3818 34.1437 38.9806 34.0308 38.5766 34.0031C38.1687 33.9793 37.7638 34.0428 37.362 34.1934C36.9602 34.352 36.5813 34.6059 36.2251 34.9552Z" fill="black"/>
<path d="M21.9685 51.3998L22.6485 50.3378C22.7271 50.2151 22.8212 50.1356 22.931 50.0994C23.0407 50.0632 23.1548 50.0564 23.2734 50.0791L26.3305 50.699L29.2455 46.1467L27.4033 43.6295C27.3395 43.542 27.3003 43.437 27.2856 43.3145C27.2709 43.1919 27.3013 43.0717 27.3769 42.9537L28.0569 41.8917L35.6045 52.4448L34.7114 53.8395L21.9685 51.3998ZM29.9918 47.1637L27.5664 50.9514L32.7139 52.0014C33.0353 52.0608 33.4189 52.1633 33.8646 52.309C33.7044 52.1332 33.5583 51.9664 33.4263 51.8087C33.2961 51.6588 33.1847 51.5209 33.0922 51.3951L29.9918 47.1637Z" fill="black"/>
<path d="M19.3627 56.9443L30.6626 61.1206L29.3308 64.7243C29.0743 65.4182 28.7854 65.9896 28.4642 66.4385C28.141 66.8927 27.794 67.2335 27.4231 67.4609C27.0503 67.6935 26.6517 67.8181 26.2274 67.8346C25.8064 67.8582 25.3672 67.7855 24.9098 67.6165C24.6312 67.5135 24.3796 67.3697 24.1551 67.1852C23.9285 67.0058 23.7379 66.786 23.5832 66.5257C23.4265 66.2706 23.311 65.9769 23.2366 65.6447C23.1603 65.3177 23.1329 64.9551 23.1547 64.5569C22.6867 65.322 22.1594 65.8351 21.5729 66.0964C20.9864 66.3576 20.3409 66.3581 19.6365 66.0977C19.1581 65.9209 18.7548 65.6703 18.4266 65.3458C18.0964 65.0266 17.8525 64.6437 17.695 64.1971C17.5354 63.7557 17.4681 63.2588 17.493 62.7064C17.5213 62.1611 17.652 61.5731 17.8851 60.9423L19.3627 56.9443ZM23.9466 60.3772L20.0117 58.9229L19.1082 61.3674C18.947 61.8037 18.859 62.1954 18.8442 62.5425C18.8275 62.8949 18.8716 63.2039 18.9765 63.4698C19.0848 63.7428 19.2449 63.9723 19.457 64.1582C19.6744 64.3461 19.9329 64.4954 20.2326 64.6062C20.8161 64.8218 21.3528 64.7842 21.8428 64.4932C22.336 64.2095 22.7371 63.6497 23.046 62.8138L23.9466 60.3772ZM25.0348 60.7794L24.2887 62.798C24.1294 63.2291 24.0387 63.6199 24.0168 63.9702C23.9948 64.3206 24.0301 64.6294 24.1225 64.8966C24.213 65.1691 24.3581 65.399 24.5578 65.5863C24.7627 65.7755 25.0071 65.9226 25.2909 66.0275C25.9533 66.2724 26.5134 66.2523 26.9712 65.9674C27.4291 65.6825 27.8134 65.1195 28.1243 64.2784L28.8908 62.2045L25.0348 60.7794Z" fill="black"/>
<path d="M15.9157 73.3224L15.0929 78.4693L13.7397 78.253L14.82 71.4956L26.7159 73.3974L26.4585 75.0079L15.9157 73.3224Z" fill="black"/>
<path d="M25.5973 91.6314L24.2695 91.6672L24.1137 85.8854L20.1135 85.9932L20.2397 90.6741L18.9623 90.7085L18.8362 86.0276L14.7267 86.1383L14.8825 91.9201L13.5547 91.9559L13.3548 84.5354L25.3974 84.2109L25.5973 91.6314Z" fill="black"/>
<path d="M29.1241 122.672C29.4758 122.422 29.854 122.252 30.2587 122.164C30.6667 122.08 31.0661 122.071 31.4569 122.137C31.8523 122.199 32.225 122.336 32.5751 122.548C32.9331 122.761 33.2355 123.041 33.4825 123.388C33.7326 123.74 33.8997 124.12 33.9837 124.528C34.0722 124.932 34.0812 125.332 34.0108 125.726C33.9482 126.121 33.8087 126.496 33.5924 126.849C33.3793 127.207 33.097 127.511 32.7454 127.761C32.3938 128.011 32.0139 128.178 31.6059 128.262C31.2058 128.348 30.8086 128.355 30.4146 128.285C30.0238 128.219 29.6494 128.079 29.2915 127.866C28.9381 127.65 28.6363 127.366 28.3862 127.014C28.1392 126.667 27.9715 126.291 27.883 125.887C27.8023 125.483 27.7949 125.086 27.8607 124.695C27.9266 124.305 28.0638 123.932 28.2723 123.577C28.4886 123.224 28.7725 122.922 29.1241 122.672Z" fill="black"/>
<path d="M37.0938 132.792C37.3917 132.48 37.731 132.242 38.1117 132.078C38.4964 131.919 38.8869 131.834 39.2831 131.825C39.6831 131.812 40.0751 131.876 40.459 132.017C40.8508 132.159 41.2008 132.377 41.509 132.671C41.8212 132.968 42.0571 133.31 42.2168 133.695C42.3804 134.075 42.4649 134.466 42.4703 134.866C42.4837 135.266 42.4176 135.66 42.2721 136.048C42.1307 136.44 41.911 136.792 41.6131 137.104C41.3152 137.416 40.9739 137.652 40.5892 137.812C40.2124 137.971 39.8239 138.054 39.4236 138.059C39.0274 138.069 38.6334 138.002 38.2416 137.861C37.8537 137.716 37.5036 137.494 37.1913 137.196C36.8832 136.902 36.6473 136.565 36.4838 136.184C36.3281 135.803 36.2457 135.415 36.2364 135.018C36.2271 134.622 36.2912 134.23 36.4287 133.842C36.5742 133.454 36.7959 133.104 37.0938 132.792Z" fill="black"/>
<path d="M46.8353 141.221C47.0687 140.858 47.3568 140.56 47.6996 140.327C48.0472 140.098 48.4146 139.941 48.8019 139.857C49.1921 139.768 49.5892 139.757 49.9929 139.823C50.4044 139.888 50.7893 140.035 51.1476 140.266C51.5106 140.499 51.8069 140.789 52.0365 141.137C52.2692 141.48 52.4261 141.847 52.5072 142.239C52.596 142.63 52.6058 143.029 52.5364 143.437C52.4717 143.849 52.3226 144.236 52.0892 144.599C51.8558 144.962 51.5654 145.258 51.2178 145.488C50.878 145.716 50.5121 145.87 50.1202 145.952C49.7329 146.036 49.3335 146.045 48.922 145.981C48.5136 145.911 48.1278 145.76 47.7648 145.527C47.4066 145.296 47.1111 145.01 46.8784 144.667C46.6535 144.322 46.499 143.956 46.4148 143.569C46.3307 143.182 46.3194 142.785 46.3811 142.378C46.4505 141.97 46.6019 141.584 46.8353 141.221Z" fill="black"/>
<path d="M91.2777 146.54L91.3043 147.868L85.5216 147.983L85.6018 151.984L90.2834 151.89L90.3091 153.168L85.6274 153.262L85.7098 157.372L91.4926 157.256L91.5192 158.584L84.0975 158.733L83.8559 146.688L91.2777 146.54Z" fill="black"/>
<path d="M99.3136 151.174L94.1516 146.327L95.7348 145.972C95.8497 145.946 95.9387 145.946 96.002 145.972C96.0653 145.998 96.1267 146.042 96.1864 146.103L100.31 150.124C100.323 150 100.352 149.862 100.398 149.708L102.33 144.76C102.362 144.673 102.4 144.601 102.445 144.545C102.494 144.482 102.56 144.442 102.642 144.423L104.159 144.083L101.528 150.6L106.926 155.809L105.351 156.162C105.231 156.189 105.128 156.18 105.044 156.136C104.964 156.085 104.893 156.026 104.832 155.959L100.577 151.736C100.564 151.859 100.539 151.979 100.503 152.097L98.4663 157.387C98.4343 157.474 98.3928 157.558 98.3419 157.638C98.2952 157.712 98.2144 157.762 98.0996 157.788L96.623 158.119L99.3136 151.174Z" fill="black"/>
<path d="M112.427 148.906L114.289 153.009L112.812 153.68L107.833 142.71L111.071 141.24C111.765 140.925 112.404 140.734 112.989 140.665C113.576 140.59 114.105 140.623 114.576 140.766C115.047 140.909 115.46 141.153 115.813 141.498C116.171 141.84 116.467 142.268 116.701 142.784C116.933 143.294 117.056 143.802 117.069 144.306C117.083 144.811 116.986 145.295 116.778 145.759C116.575 146.22 116.257 146.654 115.826 147.059C115.392 147.459 114.846 147.808 114.187 148.107L112.427 148.906ZM111.892 147.727L113.652 146.928C114.076 146.736 114.423 146.511 114.694 146.252C114.969 145.992 115.172 145.712 115.301 145.414C115.428 145.11 115.483 144.792 115.468 144.461C115.453 144.129 115.369 143.795 115.216 143.458C114.899 142.759 114.434 142.311 113.822 142.115C113.215 141.917 112.475 142.015 111.602 142.412L109.842 143.211L111.892 147.727Z" fill="black"/>
<path d="M124.613 132.976L125.387 134.056L120.685 137.424L123.015 140.677L126.822 137.951L127.566 138.99L123.759 141.716L126.153 145.058L130.855 141.69L131.628 142.77L125.594 147.093L118.579 137.299L124.613 132.976Z" fill="black"/>
<path d="M134.025 133.779L137.708 137.202L136.603 138.39L127.778 130.19L130.096 127.695C130.615 127.137 131.121 126.708 131.613 126.408C132.102 126.105 132.575 125.921 133.033 125.857C133.494 125.788 133.936 125.832 134.358 125.987C134.776 126.138 135.172 126.387 135.545 126.734C135.857 127.024 136.103 127.344 136.282 127.695C136.462 128.045 136.573 128.416 136.615 128.807C136.656 129.19 136.627 129.587 136.528 130C136.431 130.408 136.264 130.818 136.025 131.231C136.249 131.164 136.496 131.149 136.767 131.186L142.664 131.868L141.679 132.928C141.477 133.145 141.244 133.227 140.98 133.173L135.698 132.534C135.535 132.513 135.395 132.524 135.277 132.568C135.156 132.608 135.019 132.71 134.866 132.874L134.025 133.779ZM133.157 132.973L134.318 131.722C134.643 131.373 134.886 131.029 135.048 130.69C135.21 130.343 135.297 130.011 135.309 129.693C135.321 129.368 135.262 129.061 135.132 128.772C135.003 128.483 134.809 128.219 134.55 127.978C134.024 127.49 133.466 127.296 132.875 127.397C132.288 127.494 131.675 127.885 131.038 128.571L129.825 129.877L133.157 132.973Z" fill="black"/>
<path d="M147.25 125.238L146.359 126.603L136.271 120.018L137.163 118.653L147.25 125.238Z" fill="black"/>
<path d="M155.049 109.52L154.554 110.68C154.497 110.814 154.418 110.908 154.315 110.962C154.213 111.016 154.102 111.042 153.981 111.039L150.864 110.935L148.744 115.908L150.978 118.085C151.056 118.16 151.112 118.257 151.147 118.376C151.182 118.494 151.172 118.618 151.117 118.747L150.622 119.907L141.428 110.752L142.078 109.228L155.049 109.52ZM147.839 115.029L149.603 110.891L144.352 110.71C144.026 110.704 143.63 110.667 143.167 110.597C143.354 110.744 143.526 110.884 143.682 111.018C143.835 111.144 143.968 111.262 144.08 111.37L147.839 115.029Z" fill="black"/>
<path d="M145.051 100.698C145.076 100.554 145.113 100.453 145.163 100.393C145.209 100.327 145.295 100.26 145.421 100.19L155.562 94.8727C155.415 94.8643 155.275 94.8513 155.142 94.8338C155.003 94.8153 154.87 94.795 154.743 94.7729L146.336 93.3099L146.581 91.9019L158.45 93.9673L158.309 94.779C158.287 94.906 158.246 95.0098 158.186 95.0905C158.128 95.1656 158.039 95.2355 157.919 95.3L147.788 100.611C147.928 100.624 148.065 100.639 148.198 100.657C148.332 100.674 148.454 100.693 148.564 100.712L157.02 102.183L156.775 103.591L144.907 101.526L145.051 100.698Z" fill="black"/>
<path d="M155.901 77.9392C155.896 77.8497 155.927 77.7664 155.996 77.6895L156.655 77.011C157.255 77.4701 157.734 78.0428 158.094 78.7291C158.454 79.4099 158.663 80.2455 158.721 81.2358C158.771 82.103 158.669 82.8978 158.413 83.62C158.152 84.3426 157.768 84.9686 157.26 85.4979C156.746 86.0275 156.12 86.4514 155.38 86.7696C154.641 87.0879 153.818 87.2734 152.912 87.3263C152.005 87.3792 151.166 87.2822 150.394 87.0353C149.621 86.7828 148.948 86.4067 148.374 85.9068C147.8 85.407 147.344 84.7964 147.004 84.0752C146.658 83.3486 146.46 82.5378 146.407 81.6426C146.356 80.7586 146.448 79.9896 146.685 79.3358C146.922 78.6764 147.261 78.084 147.702 77.5586L148.48 78.0438C148.538 78.0797 148.588 78.1217 148.63 78.1697C148.667 78.2181 148.688 78.2899 148.693 78.385C148.697 78.4577 148.677 78.5375 148.631 78.6244C148.58 78.706 148.518 78.805 148.447 78.9215C148.375 79.038 148.298 79.1743 148.218 79.3306C148.137 79.4869 148.064 79.6709 147.997 79.8824C147.931 80.094 147.881 80.3384 147.846 80.6155C147.806 80.8929 147.797 81.2106 147.818 81.5687C147.855 82.2121 148.002 82.7959 148.257 83.32C148.506 83.8388 148.846 84.2793 149.277 84.6415C149.708 85.0037 150.224 85.2768 150.824 85.4607C151.424 85.6391 152.087 85.707 152.815 85.6646C153.564 85.6208 154.227 85.4755 154.802 85.2286C155.377 84.9762 155.857 84.6534 156.244 84.2603C156.625 83.8619 156.907 83.4019 157.09 82.8804C157.273 82.3588 157.347 81.8043 157.313 81.2168C157.292 80.8588 157.254 80.5382 157.198 80.2551C157.137 79.9724 157.054 79.7133 156.951 79.478C156.847 79.237 156.722 79.0169 156.575 78.8178C156.423 78.6133 156.246 78.4103 156.043 78.2088C155.953 78.1186 155.906 78.0287 155.901 77.9392Z" fill="black"/>
<path d="M143.559 66.3697L144.842 66.0233L146.35 71.6071L150.213 70.5637L148.992 66.0431L150.226 65.7099L151.447 70.2306L155.415 69.1587L153.907 63.5748L155.19 63.2285L157.125 70.395L145.495 73.5361L143.559 66.3697Z" fill="black"/>
<path d="M137.516 41.9499C137.202 42.2456 136.85 42.4649 136.461 42.6077C136.069 42.7465 135.674 42.8098 135.278 42.7978C134.878 42.7896 134.49 42.7044 134.114 42.5423C133.731 42.38 133.393 42.1438 133.101 41.8336C132.805 41.5193 132.588 41.1658 132.449 40.773C132.306 40.3841 132.243 39.9896 132.259 39.5897C132.267 39.1895 132.355 38.7996 132.521 38.42C132.683 38.0364 132.921 37.6967 133.236 37.401C133.55 37.1053 133.903 36.888 134.296 36.7493C134.681 36.6103 135.073 36.5489 135.473 36.565C135.87 36.5771 136.259 36.6642 136.643 36.8266C137.023 36.9927 137.36 37.2329 137.656 37.5472C137.948 37.8574 138.165 38.207 138.308 38.5959C138.443 38.9846 138.504 39.377 138.492 39.7731C138.48 40.1692 138.395 40.5572 138.237 40.937C138.071 41.3165 137.83 41.6542 137.516 41.9499Z" fill="black"/>
<path d="M128.243 33.0089C127.99 33.3588 127.686 33.6407 127.331 33.8546C126.972 34.0652 126.597 34.202 126.205 34.2652C125.811 34.3329 125.414 34.3228 125.014 34.2348C124.607 34.148 124.23 33.98 123.885 33.7306C123.535 33.478 123.255 33.172 123.044 32.8126C122.831 32.4578 122.694 32.0825 122.634 31.6867C122.566 31.2922 122.578 30.8928 122.669 30.4887C122.756 30.0813 122.926 29.7026 123.178 29.3527C123.431 29.0028 123.737 28.7226 124.096 28.512C124.448 28.3027 124.821 28.1681 125.217 28.1082C125.608 28.045 126.008 28.0568 126.415 28.1436C126.819 28.2349 127.196 28.4068 127.546 28.6594C127.892 28.9088 128.171 29.2109 128.385 29.5657C128.591 29.9218 128.726 30.2955 128.789 30.6867C128.852 31.078 128.842 31.475 128.758 31.8779C128.667 32.282 128.495 32.6591 128.243 33.0089Z" fill="black"/>
<path d="M117.444 25.9855C117.262 26.3768 117.017 26.7111 116.709 26.9883C116.396 27.2631 116.054 27.4686 115.682 27.6047C115.307 27.7459 114.915 27.8111 114.506 27.8003C114.09 27.7923 113.688 27.6985 113.302 27.5191C112.911 27.3373 112.578 27.0899 112.303 26.7768C112.026 26.4689 111.82 26.1263 111.686 25.749C111.545 25.3744 111.481 24.9801 111.494 24.566C111.502 24.1495 111.597 23.7456 111.779 23.3542C111.961 22.9628 112.208 22.6297 112.521 22.3549C112.827 22.0828 113.168 21.8799 113.546 21.7461C113.918 21.61 114.312 21.546 114.729 21.5541C115.143 21.5672 115.545 21.6647 115.937 21.8464C116.323 22.0259 116.655 22.2696 116.932 22.5775C117.202 22.8882 117.405 23.2296 117.541 23.6018C117.677 23.974 117.742 24.3658 117.736 24.7772C117.723 25.1913 117.626 25.5941 117.444 25.9855Z" fill="black"/>
</svg>
