<svg width="48" height="48" viewBox="0 0 48 48" fill="none" xmlns="http://www.w3.org/2000/svg">
<path d="M6.952 44.656C3.688 39.328 2.056 33.952 2.056 28.528C2.056 23.728 3.256 19.144 5.656 14.776C8.104 10.36 11.632 6.32799 16.24 2.68L21.784 6.06399C22.264 6.35199 22.6 6.712 22.792 7.144C22.984 7.52799 23.08 7.91199 23.08 8.29599C23.08 8.72799 22.984 9.136 22.792 9.52C22.6 9.904 22.384 10.24 22.144 10.528C21.52 11.248 20.848 12.088 20.128 13.048C19.456 14.008 18.832 15.064 18.256 16.216C17.68 17.32 17.2 18.544 16.816 19.888C16.432 21.232 16.24 22.672 16.24 24.208C16.24 25.84 16.504 27.592 17.032 29.464C17.56 31.288 18.448 33.208 19.696 35.224C20.128 35.896 20.344 36.568 20.344 37.24C20.344 38.776 19.48 39.856 17.752 40.48L6.952 44.656ZM30.856 44.656C27.592 39.328 25.96 33.952 25.96 28.528C25.96 23.728 27.16 19.144 29.56 14.776C32.008 10.36 35.536 6.32799 40.144 2.68L45.688 6.06399C46.168 6.35199 46.504 6.712 46.696 7.144C46.888 7.52799 46.984 7.91199 46.984 8.29599C46.984 8.72799 46.888 9.136 46.696 9.52C46.504 9.904 46.288 10.24 46.048 10.528C45.424 11.248 44.752 12.088 44.032 13.048C43.36 14.008 42.736 15.064 42.16 16.216C41.584 17.32 41.104 18.544 40.72 19.888C40.336 21.232 40.144 22.672 40.144 24.208C40.144 25.84 40.408 27.592 40.936 29.464C41.464 31.288 42.352 33.208 43.6 35.224C44.032 35.896 44.248 36.568 44.248 37.24C44.248 38.776 43.384 39.856 41.656 40.48L30.856 44.656Z" fill="#C4C4C4"/>
</svg>
