<svg width="30" height="30" viewBox="0 0 30 30" fill="none" xmlns="http://www.w3.org/2000/svg">
<path d="M20.5275 16.8038C20.2873 16.5855 19.9717 16.4691 19.6472 16.4791C19.3228 16.4891 19.015 16.6248 18.7887 16.8576L15.7975 19.9338C15.0775 19.7963 13.63 19.3451 12.14 17.8588C10.65 16.3676 10.1987 14.9163 10.065 14.2013L13.1387 11.2088C13.3718 10.9827 13.5077 10.6748 13.5177 10.3503C13.5277 10.0258 13.4111 9.71011 13.1925 9.47005L8.57374 4.3913C8.35504 4.1505 8.05108 4.00443 7.72643 3.98413C7.40177 3.96382 7.08198 4.07088 6.83499 4.28255L4.12249 6.6088C3.90638 6.8257 3.77739 7.11437 3.75999 7.42005C3.74124 7.73255 3.38374 15.1351 9.12374 20.8776C14.1312 25.8838 20.4037 26.2501 22.1312 26.2501C22.3837 26.2501 22.5387 26.2426 22.58 26.2401C22.8856 26.2229 23.1741 26.0934 23.39 25.8763L25.715 23.1626C25.9268 22.9157 26.0341 22.596 26.014 22.2714C25.9939 21.9467 25.8481 21.6427 25.6075 21.4238L20.5275 16.8038Z" fill="#383838"/>
</svg>
